<?xml version="1.0" encoding="UTF-8"?>
<!DOCTYPE svg PUBLIC "-//W3C//DTD SVG 1.1//EN" "http://www.w3.org/Graphics/SVG/1.1/DTD/svg11.dtd">
<svg xmlns="http://www.w3.org/2000/svg" version="1.1" width="621px" height="621px" style="shape-rendering:geometricPrecision; text-rendering:geometricPrecision; image-rendering:optimizeQuality; fill-rule:evenodd; clip-rule:evenodd" xmlns:xlink="http://www.w3.org/1999/xlink">
<g><path style="opacity:0.954" fill="#fefffe" d="M 268.5,103.5 C 294.5,103.5 320.5,103.5 346.5,103.5C 345.884,111.939 346.551,120.106 348.5,128C 376.582,133.193 402.916,143.027 427.5,157.5C 432.426,150.526 437.26,143.526 442,136.5C 453.68,141.254 464.513,147.421 474.5,155C 484.32,162.821 493.487,171.321 502,180.5C 502.738,183.212 502.071,185.545 500,187.5C 495.167,193 490.333,198.5 485.5,204C 499.562,218.714 512.062,234.548 523,251.5C 530.251,247.125 537.418,242.625 544.5,238C 546.044,236.813 547.711,236.48 549.5,237C 565.564,256.792 576.897,279.126 583.5,304C 574.86,308.83 565.86,312.997 556.5,316.5C 563.647,337.446 569.48,358.779 574,380.5C 579.741,381.475 585.575,381.808 591.5,381.5C 592.697,407.164 592.697,432.831 591.5,458.5C 578.5,458.5 565.5,458.5 552.5,458.5C 552.667,432.498 552.5,406.498 552,380.5C 538.068,309.446 504.568,249.613 451.5,201C 377.509,139.728 296.509,128.728 208.5,168C 162.772,192.733 126.606,227.233 100,271.5C 80.024,305.424 66.3574,341.757 59,380.5C 58.5,406.498 58.3334,432.498 58.5,458.5C 45.1667,458.5 31.8333,458.5 18.5,458.5C 18.5,432.833 18.5,407.167 18.5,381.5C 24.7576,381.81 30.9242,381.476 37,380.5C 41.2068,359.213 47.0402,338.379 54.5,318C 54.3552,317.228 54.0219,316.561 53.5,316C 45.2576,312.295 37.091,308.462 29,304.5C 33.553,279.393 44.053,257.06 60.5,237.5C 62.0745,236.369 63.7412,236.202 65.5,237C 72.6431,241.774 79.9764,246.274 87.5,250.5C 90.6363,247.571 93.303,244.238 95.5,240.5C 104.693,227.435 115.026,214.935 126.5,203C 121.142,196.498 115.642,189.998 110,183.5C 109.333,182.5 109.333,181.5 110,180.5C 126.659,161.829 146.159,146.996 168.5,136C 169.784,135.316 170.951,135.483 172,136.5C 175.77,143.722 180.27,150.389 185.5,156.5C 211.066,141.811 238.399,131.978 267.5,127C 268.482,119.253 268.815,111.42 268.5,103.5 Z"/></g>
<g><path style="opacity:0.98" fill="#fefffe" d="M 142.5,240.5 C 161.167,240.5 179.833,240.5 198.5,240.5C 198.5,254.5 198.5,268.5 198.5,282.5C 205.833,282.5 213.167,282.5 220.5,282.5C 220.5,304.5 220.5,326.5 220.5,348.5C 213.167,348.5 205.833,348.5 198.5,348.5C 198.333,359.505 198.5,370.505 199,381.5C 205.518,387.308 213.018,388.975 221.5,386.5C 220.55,410.478 220.217,434.478 220.5,458.5C 179.601,455.13 154.434,433.464 145,393.5C 144.333,390.167 143.667,386.833 143,383.5C 142.5,371.838 142.333,360.171 142.5,348.5C 132.833,348.5 123.167,348.5 113.5,348.5C 113.5,326.5 113.5,304.5 113.5,282.5C 123.167,282.5 132.833,282.5 142.5,282.5C 142.5,268.5 142.5,254.5 142.5,240.5 Z"/></g>
<g><path style="opacity:0.98" fill="#fefffe" d="M 359.5,262.5 C 370.833,262.5 382.167,262.5 393.5,262.5C 393.747,268.541 393.414,274.541 392.5,280.5C 395.602,288.441 400.269,289.441 406.5,283.5C 424.491,282.334 442.491,282.167 460.5,283C 483.936,287.769 499.103,301.603 506,324.5C 508.133,332.032 509.467,339.698 510,347.5C 510.5,382.498 510.667,417.498 510.5,452.5C 506.577,451.96 504.244,453.627 503.5,457.5C 499.261,459.463 496.261,458.296 494.5,454C 489.95,451.933 486.617,453.266 484.5,458C 480.271,459.498 477.271,458.331 475.5,454.5C 470.977,451.644 468.311,452.977 467.5,458.5C 465.08,458.708 462.747,458.374 460.5,457.5C 459.571,456.311 459.238,454.978 459.5,453.5C 457.5,453.167 455.5,452.833 453.5,452.5C 453.667,416.165 453.5,379.832 453,343.5C 450.667,342.833 448.333,342.167 446,341.5C 445.586,341.957 445.086,342.291 444.5,342.5C 442.182,341.051 440.182,339.218 438.5,337C 435.833,336.333 433.167,336.333 430.5,337C 428.649,338.684 426.982,340.517 425.5,342.5C 422.229,341.802 418.896,341.802 415.5,342.5C 415.5,356.167 415.5,369.833 415.5,383.5C 396.511,382.717 377.511,382.384 358.5,382.5C 359.167,342.503 359.5,302.503 359.5,262.5 Z"/></g>
<g><path style="opacity:0.981" fill="#fefffe" d="M 312.5,282.5 C 323.833,282.5 335.167,282.5 346.5,282.5C 345.897,304.169 345.23,325.835 344.5,347.5C 336.351,346.992 329.184,349.325 323,354.5C 322.977,371.088 320.977,387.421 317,403.5C 307.167,432.998 287.001,450.832 256.5,457C 249.868,458.162 243.201,458.996 236.5,459.5C 236.5,435.167 236.5,410.833 236.5,386.5C 250.358,387.824 260.525,382.491 267,370.5C 268.286,355.234 268.953,339.901 269,324.5C 270.486,306.36 279.652,293.86 296.5,287C 301.874,285.16 307.207,283.66 312.5,282.5 Z"/></g>
</svg>
