<svg width="50" height="48" viewBox="0 0 50 48" fill="none" xmlns="http://www.w3.org/2000/svg">
<path fill-rule="evenodd" clip-rule="evenodd" d="M25.3143 48C11.6807 48 0.628571 37.2548 0.628571 24C0.628571 10.7452 11.6807 0 25.3143 0C38.9478 0 50 10.7452 50 24C50 37.2548 38.9478 48 25.3143 48Z" fill="#EFF2F6"/>
<g clip-path="url(#clip0_219_9576)">
<path d="M17.1426 13V16H14.1426V18H17.1426V21H19.1426V18H22.1426V16H19.1426V13H17.1426ZM25.1426 25C24.0426 25 23.1426 24.1 23.1426 23C23.1426 21.9 24.0426 21 25.1426 21C26.2426 21 27.1426 21.9 27.1426 23C27.1426 24.1 26.2426 25 25.1426 25ZM23.1426 15.25V19H20.1426V22H17.2226C17.1726 22.39 17.1426 22.79 17.1426 23.2C17.1426 26.52 19.8126 30.45 25.1426 35C30.4726 30.45 33.1426 26.52 33.1426 23.2C33.1426 18.22 29.3426 15 25.1426 15C24.4626 15 23.7926 15.08 23.1426 15.25Z" fill="#323232"/>
</g>
<defs>
<clipPath id="clip0_219_9576">
<rect width="24" height="24" fill="white" transform="matrix(-1 0 0 1 37.1426 12)"/>
</clipPath>
</defs>
</svg>
