<svg width="50" height="48" viewBox="0 0 50 48" fill="none" xmlns="http://www.w3.org/2000/svg">
<path fill-rule="evenodd" clip-rule="evenodd" d="M25.3253 48C11.6978 48 0.65052 37.2548 0.65052 24C0.65052 10.7452 11.6978 0 25.3253 0C38.9527 0 50 10.7452 50 24C50 37.2548 38.9527 48 25.3253 48Z" fill="#EFF2F6"/>
<g clip-path="url(#clip0_219_9585)">
<path d="M25.0113 33.35L26.4606 32.03C31.6083 27.36 35.0068 24.28 35.0068 20.5C35.0068 17.42 32.5879 15 29.5093 15C27.7701 15 26.1008 15.81 25.0113 17.09C23.9218 15.81 22.2525 15 20.5133 15C17.4347 15 15.0157 17.42 15.0157 20.5C15.0157 24.28 18.4142 27.36 23.5619 32.04L25.0113 33.35Z" fill="#323232"/>
</g>
<defs>
<clipPath id="clip0_219_9585">
<rect width="23.9893" height="24" fill="white" transform="matrix(-1 0 0 1 37.0059 12)"/>
</clipPath>
</defs>
</svg>
