<svg width="24" height="24" viewBox="0 0 24 24" fill="none" xmlns="http://www.w3.org/2000/svg">
<path d="M12 8.75C11.138 8.75 10.3114 9.09241 9.7019 9.7019C9.09241 10.3114 8.75 11.138 8.75 12C8.75 12.862 9.09241 13.6886 9.7019 14.2981C10.3114 14.9076 11.138 15.25 12 15.25C12.862 15.25 13.6886 14.9076 14.2981 14.2981C14.9076 13.6886 15.25 12.862 15.25 12C15.25 11.138 14.9076 10.3114 14.2981 9.7019C13.6886 9.09241 12.862 8.75 12 8.75Z" fill="white"/>
<path fill-rule="evenodd" clip-rule="evenodd" d="M6.77 3.08182C10.246 2.69652 13.754 2.69652 17.23 3.08182C19.129 3.29382 20.66 4.78882 20.883 6.69482C21.2952 10.2195 21.2952 13.7802 20.883 17.3048C20.66 19.2108 19.129 20.7058 17.231 20.9188C13.7547 21.3042 10.2464 21.3042 6.77 20.9188C4.871 20.7058 3.34 19.2108 3.117 17.3058C2.70473 13.7808 2.70473 10.2198 3.117 6.69482C3.34 4.78882 4.871 3.29382 6.77 3.08182ZM17 5.99982C16.7348 5.99982 16.4804 6.10518 16.2929 6.29271C16.1054 6.48025 16 6.7346 16 6.99982C16 7.26504 16.1054 7.51939 16.2929 7.70693C16.4804 7.89446 16.7348 7.99982 17 7.99982C17.2652 7.99982 17.5196 7.89446 17.7071 7.70693C17.8946 7.51939 18 7.26504 18 6.99982C18 6.7346 17.8946 6.48025 17.7071 6.29271C17.5196 6.10518 17.2652 5.99982 17 5.99982ZM7.25 11.9998C7.25 10.74 7.75045 9.53186 8.64125 8.64106C9.53205 7.75027 10.7402 7.24982 12 7.24982C13.2598 7.24982 14.468 7.75027 15.3588 8.64106C16.2496 9.53186 16.75 10.74 16.75 11.9998C16.75 13.2596 16.2496 14.4678 15.3588 15.3586C14.468 16.2494 13.2598 16.7498 12 16.7498C10.7402 16.7498 9.53205 16.2494 8.64125 15.3586C7.75045 14.4678 7.25 13.2596 7.25 11.9998Z" fill="white"/>
</svg>
