<svg width="12" height="12" viewBox="0 0 12 12" fill="none" xmlns="http://www.w3.org/2000/svg">
<path d="M5 2.99988V3.99988H2.5V9.49988H8V6.99988H9V9.99988C9 10.1325 8.94732 10.2597 8.85355 10.3534C8.75979 10.4472 8.63261 10.4999 8.5 10.4999H2C1.86739 10.4999 1.74021 10.4472 1.64645 10.3534C1.55268 10.2597 1.5 10.1325 1.5 9.99988V3.49988C1.5 3.36727 1.55268 3.24009 1.64645 3.14632C1.74021 3.05256 1.86739 2.99988 2 2.99988H5ZM10.5 1.49988V5.49988H9.5V3.20638L5.6035 7.10338L4.8965 6.39638L8.7925 2.49988H6.5V1.49988H10.5Z" fill="white"/>
</svg>
