<svg width="16" height="16" viewBox="0 0 16 16" fill="none" xmlns="http://www.w3.org/2000/svg">
<path d="M2.7 14C2.5 14 2.33333 13.9333 2.2 13.8C2.06667 13.6667 2 13.5 2 13.3V10.6C2 10.4444 2.05 10.3082 2.15 10.1913C2.25 10.0749 2.37778 10 2.53333 9.96667L4.83333 9.5C4.98889 9.47778 5.14733 9.49156 5.30867 9.54133C5.46956 9.59156 5.6 9.66667 5.7 9.76667L7.26667 11.3333C8.11111 10.8222 8.88622 10.2167 9.592 9.51667C10.2973 8.81667 10.8833 8.06667 11.35 7.26667L9.73333 5.63333C9.63333 5.53333 9.56933 5.41933 9.54133 5.29133C9.51378 5.16378 9.51111 5.02222 9.53333 4.86667L9.96667 2.53333C9.98889 2.37778 10.0611 2.25 10.1833 2.15C10.3056 2.05 10.4444 2 10.6 2H13.3C13.5 2 13.6667 2.06667 13.8 2.2C13.9333 2.33333 14 2.5 14 2.7C14 4.13333 13.6804 5.53044 13.0413 6.89133C12.4027 8.25267 11.5582 9.45822 10.508 10.508C9.45822 11.5582 8.25289 12.4027 6.892 13.0413C5.53067 13.6804 4.13333 14 2.7 14ZM11.9833 6C12.1722 5.56667 12.3167 5.12778 12.4167 4.68333C12.5167 4.23889 12.5944 3.78889 12.65 3.33333H11.1667L10.8833 4.9L11.9833 6ZM6.01667 11.9667L4.9 10.85L3.33333 11.1667V12.6333C3.78889 12.6 4.24178 12.5278 4.692 12.4167C5.14178 12.3056 5.58333 12.1556 6.01667 11.9667Z" fill="#212121"/>
</svg>
