<svg width="50" height="48" viewBox="0 0 50 48" fill="none" xmlns="http://www.w3.org/2000/svg">
<path fill-rule="evenodd" clip-rule="evenodd" d="M25.3135 48C11.6801 48 0.628052 37.2548 0.628052 24C0.628052 10.7452 11.6801 0 25.3135 0C38.947 0 49.999 10.7452 49.999 24C49.999 37.2548 38.947 48 25.3135 48Z" fill="#EFF2F6"/>
<g clip-path="url(#clip0_219_9594)">
<path d="M24.8564 24.75C23.2264 24.75 21.7864 25.14 20.6164 25.65C19.5364 26.13 18.8564 27.21 18.8564 28.38V30H30.8564V28.39C30.8564 27.21 30.1764 26.13 29.0964 25.66C27.9264 25.14 26.4864 24.75 24.8564 24.75ZM32.8564 25C31.7564 25 30.8564 24.1 30.8564 23C30.8564 21.9 31.7564 21 32.8564 21C33.9564 21 34.8564 21.9 34.8564 23C34.8564 24.1 33.9564 25 32.8564 25ZM31.7264 26.1C32.0964 26.04 32.4664 26 32.8564 26C33.8464 26 34.7864 26.21 35.6364 26.58C36.3764 26.9 36.8564 27.62 36.8564 28.43V30H32.3564V28.39C32.3564 27.56 32.1264 26.78 31.7264 26.1ZM16.8564 25C15.7564 25 14.8564 24.1 14.8564 23C14.8564 21.9 15.7564 21 16.8564 21C17.9564 21 18.8564 21.9 18.8564 23C18.8564 24.1 17.9564 25 16.8564 25ZM12.8564 28.43C12.8564 27.62 13.3364 26.9 14.0764 26.58C14.9264 26.21 15.8664 26 16.8564 26C17.2464 26 17.6164 26.04 17.9864 26.1C17.5864 26.78 17.3564 27.56 17.3564 28.39V30H12.8564V28.43ZM24.8564 18C23.1964 18 21.8564 19.34 21.8564 21C21.8564 22.66 23.1964 24 24.8564 24C26.5164 24 27.8564 22.66 27.8564 21C27.8564 19.34 26.5164 18 24.8564 18Z" fill="#323232"/>
</g>
<defs>
<clipPath id="clip0_219_9594">
<rect width="24" height="24" fill="white" transform="matrix(-1 0 0 1 36.8564 12)"/>
</clipPath>
</defs>
</svg>
