<svg width="24" height="24" viewBox="0 0 24 24" fill="none" xmlns="http://www.w3.org/2000/svg">
<path d="M12 1.99988C6.48 1.99988 2 6.47988 2 11.9999C2 17.5199 6.48 21.9999 12 21.9999C17.52 21.9999 22 17.5199 22 11.9999C22 6.47988 17.52 1.99988 12 1.99988ZM16.64 8.79988C16.49 10.3799 15.84 14.2199 15.51 15.9899C15.37 16.7399 15.09 16.9899 14.83 17.0199C14.25 17.0699 13.81 16.6399 13.25 16.2699C12.37 15.6899 11.87 15.3299 11.02 14.7699C10.03 14.1199 10.67 13.7599 11.24 13.1799C11.39 13.0299 13.95 10.6999 14 10.4899C14.0069 10.4581 14.006 10.425 13.9973 10.3937C13.9886 10.3623 13.9724 10.3335 13.95 10.3099C13.89 10.2599 13.81 10.2799 13.74 10.2899C13.65 10.3099 12.25 11.2399 9.52 13.0799C9.12 13.3499 8.76 13.4899 8.44 13.4799C8.08 13.4699 7.4 13.2799 6.89 13.1099C6.26 12.9099 5.77 12.7999 5.81 12.4499C5.83 12.2699 6.08 12.0899 6.55 11.8999C9.47 10.6299 11.41 9.78988 12.38 9.38988C15.16 8.22988 15.73 8.02988 16.11 8.02988C16.19 8.02988 16.38 8.04988 16.5 8.14988C16.6 8.22988 16.63 8.33988 16.64 8.41988C16.63 8.47988 16.65 8.65988 16.64 8.79988Z" fill="white"/>
</svg>
